<?xml version="1.0" standalone="no"?>
<!DOCTYPE svg PUBLIC "-//W3C//DTD SVG 20010904//EN"
 "http://www.w3.org/TR/2001/REC-SVG-20010904/DTD/svg10.dtd">
<svg version="1.0" xmlns="http://www.w3.org/2000/svg"
 width="512.000000pt" height="512.000000pt" viewBox="0 0 512.000000 512.000000"
 preserveAspectRatio="xMidYMid meet">
<metadata>
Created by potrace 1.14, written by Peter Selinger 2001-2017
</metadata>
<g transform="translate(0.000000,512.000000) scale(0.100000,-0.100000)"
fill="#000000" stroke="none">
<path d="M2475 4253 c-16 -2 -74 -12 -127 -23 -244 -48 -461 -157 -625 -313
-97 -93 -157 -173 -209 -282 l-43 -89 -39 2 c-34 3 -43 -1 -66 -30 -15 -18
-44 -42 -64 -53 -30 -16 -38 -27 -40 -55 -2 -21 -14 -46 -30 -63 -19 -20 -26
-37 -25 -65 1 -20 -7 -56 -18 -79 -21 -45 -19 -74 8 -105 12 -14 13 -23 4 -51
-15 -43 -1 -83 34 -99 19 -8 25 -19 25 -43 0 -37 15 -55 48 -55 14 0 42 -15
64 -36 33 -29 46 -35 74 -32 33 4 34 3 40 -42 4 -25 12 -81 19 -125 7 -44 11
-82 9 -84 -7 -8 -72 26 -157 82 -119 79 -148 90 -224 85 -55 -3 -67 -8 -98
-38 -81 -78 -83 -216 -5 -378 70 -147 193 -281 354 -384 l82 -53 -4 -130 c-5
-156 11 -242 63 -350 40 -84 121 -178 195 -225 l50 -32 -61 -30 c-70 -35 -99
-74 -99 -134 0 -29 6 -46 23 -62 28 -26 64 -28 165 -7 66 14 80 14 134 0 134
-34 205 -9 196 69 -2 20 -3 36 -1 36 2 0 47 -8 101 -17 75 -13 161 -17 382
-17 260 -1 336 4 476 30 29 5 30 5 26 -28 -8 -73 65 -105 171 -74 69 20 116
20 204 0 85 -19 118 -9 138 40 28 65 -21 143 -112 181 l-37 16 34 20 c110 67
202 183 247 309 20 58 27 100 31 185 l4 111 98 -4 c221 -9 313 74 242 220 -13
26 -115 152 -228 280 -124 141 -202 238 -200 248 3 8 15 81 27 161 l23 146 59
-1 c54 -1 60 1 85 32 18 21 36 32 53 32 33 0 49 17 49 55 0 23 7 34 30 47 34
19 47 59 31 94 -9 20 -7 30 9 57 25 41 25 64 0 105 -13 21 -18 41 -14 58 8 30
-12 81 -37 95 -13 6 -19 21 -19 43 0 35 -25 66 -53 66 -9 0 -23 13 -32 30 -17
32 -43 50 -73 50 -15 0 -30 21 -61 84 -186 385 -637 630 -1147 625 -71 -1
-142 -4 -159 -6z"/>
</g>
</svg>
